<?xml version="1.0" encoding="UTF-8"?>
<svg id="Capa_1" data-name="Capa 1" xmlns="http://www.w3.org/2000/svg" viewBox="0 0 1545.35 151">
  <path d="M26.06,117.58c-6.81,0-12.25-4.48-16.31-13.44-4.06-8.96-6.09-21.08-6.09-36.37s2.03-27.41,6.09-36.37c4.06-8.96,9.5-13.44,16.31-13.44,5.23,0,9.69,2.83,13.37,8.48,3.68,5.65,5.75,13.1,6.21,22.34h-6.57c-.26-6.09-1.58-10.93-3.96-14.52-2.38-3.59-5.37-5.39-8.98-5.39-4.88,0-8.75,3.36-11.6,10.09-2.85,6.72-4.27,16.33-4.27,28.81s1.41,22.03,4.24,28.78c2.83,6.75,6.66,10.12,11.5,10.12,3.77,0,6.81-1.84,9.13-5.52,2.32-3.68,3.64-8.94,3.94-15.77h6.57c-.46,10.25-2.48,18.18-6.04,23.78-3.57,5.61-8.08,8.41-13.53,8.41Z" fill="#fff" stroke="#000" stroke-miterlimit="10"/>
  <path d="M90.38,115.94h-35.91V19.62h34.79v11.43h-28.42v29.44h26.58v11.43h-26.58v32.59h29.53v11.43Z" fill="#fff" stroke="#000" stroke-miterlimit="10"/>
  <path d="M137.16,115.94h-6.54l-25.23-76.02v76.02h-6.04V19.62h6.5l25.23,76.02V19.62h6.08v96.32Z" fill="#fff" stroke="#000" stroke-miterlimit="10"/>
  <path d="M182.17,31.05h-15.93v84.89h-6.41V31.05h-15.8v-11.43h38.14v11.43Z" fill="#fff" stroke="#000" stroke-miterlimit="10"/>
  <path d="M229.18,115.94h-6.9l-4.53-25.69c-.81-4.56-2.16-8.28-4.04-11.17-1.88-2.89-4.05-4.34-6.5-4.34h-11.79v41.2h-6.37V19.62h21.32c3.72,0,6.77.72,9.13,2.17s4.29,4.49,5.78,9.13c1.49,4.64,2.23,9.88,2.23,15.7,0,6.66-.96,12.22-2.89,16.69-1.93,4.47-4.57,7.38-7.92,8.74v.26c3.35,2.15,5.9,7.95,7.65,17.41l4.83,26.22ZM195.41,63.31h14.22c3.96,0,6.84-1.25,8.62-3.75,1.79-2.5,2.68-6.81,2.68-12.94,0-10.95-3.44-16.43-10.32-16.43h-15.21v33.11Z" fill="#fff" stroke="#000" stroke-miterlimit="10"/>
  <path d="M258.48,17.98c6.75,0,12.26,4.56,16.56,13.67,4.29,9.11,6.44,21.16,6.44,36.14s-2.15,27.03-6.44,36.14c-4.29,9.11-9.81,13.67-16.56,13.67s-12.31-4.57-16.62-13.7c-4.31-9.13-6.47-21.17-6.47-36.1s2.16-27.03,6.47-36.14c4.31-9.11,9.86-13.67,16.62-13.67ZM258.42,106.68c4.82,0,8.77-3.42,11.84-10.25s4.62-16.38,4.62-28.65-1.53-21.81-4.6-28.65c-3.07-6.83-6.98-10.25-11.73-10.25s-8.81,3.42-11.91,10.25c-3.1,6.83-4.65,16.38-4.65,28.65s1.54,21.76,4.63,28.61c3.09,6.86,7.02,10.28,11.79,10.28Z" fill="#fff" stroke="#000" stroke-miterlimit="10"/>
  <path d="M307.83,19.62h15.28c16.36,0,24.54,15.88,24.54,47.63s-8.18,48.69-24.54,48.69h-15.28V19.62ZM314.2,104.51h8.77c6.99,0,11.75-3.25,14.29-9.76,2.54-6.5,3.81-15.67,3.81-27.5s-1.26-20.43-3.79-26.74c-2.53-6.31-7.3-9.46-14.31-9.46h-8.77v73.46Z" fill="#fff" stroke="#000" stroke-miterlimit="10"/>
  <path d="M392.32,115.94h-35.91V19.62h34.79v11.43h-28.42v29.44h26.58v11.43h-26.58v32.59h29.53v11.43Z" fill="#fff" stroke="#000" stroke-miterlimit="10"/>
  <path d="M439.33,117.58c-6.81,0-12.25-4.48-16.31-13.44-4.06-8.96-6.09-21.08-6.09-36.37s2.03-27.41,6.09-36.37c4.06-8.96,9.5-13.44,16.31-13.44,5.23,0,9.69,2.83,13.37,8.48,3.68,5.65,5.75,13.1,6.21,22.34h-6.57c-.26-6.09-1.58-10.93-3.96-14.52-2.38-3.59-5.37-5.39-8.98-5.39-4.88,0-8.75,3.36-11.6,10.09-2.85,6.72-4.27,16.33-4.27,28.81s1.41,22.03,4.24,28.78c2.83,6.75,6.66,10.12,11.5,10.12,3.77,0,6.81-1.84,9.13-5.52,2.32-3.68,3.64-8.94,3.94-15.77h6.57c-.46,10.25-2.48,18.18-6.04,23.78-3.57,5.61-8.08,8.41-13.53,8.41Z" fill="#fff" stroke="#000" stroke-miterlimit="10"/>
  <path d="M507.3,115.94h-7.19l-5.58-29.3h-20.17l-5.32,29.3h-6.73l18.5-96.32h6.87l19.65,96.32ZM492.65,76.52l-8.48-44.68-8.08,44.68h16.56Z" fill="#fff" stroke="#000" stroke-miterlimit="10"/>
  <path d="M512.62,19.62h17.97c3.94,0,7.24.73,9.9,2.2,2.66,1.47,4.77,4.64,6.32,9.53,1.55,4.88,2.33,10.35,2.33,16.39,0,9.72-1.54,17.11-4.63,22.14-3.09,5.04-7.56,7.56-13.4,7.56h-12.12v38.5h-6.37V19.62ZM519,66.01h12.19c4.09,0,7.01-1.53,8.75-4.6,1.74-3.07,2.61-7.49,2.61-13.27,0-3.85-.48-7.27-1.45-10.25-.96-2.98-2.18-4.86-3.66-5.65s-3.61-1.18-6.39-1.18h-12.06v34.95Z" fill="#fff" stroke="#000" stroke-miterlimit="10"/>
  <path d="M597.05,115.94h-7.19l-5.58-29.3h-20.17l-5.32,29.3h-6.73l18.5-96.32h6.87l19.64,96.32ZM582.4,76.52l-8.48-44.68-8.08,44.68h16.56Z" fill="#fff" stroke="#000" stroke-miterlimit="10"/>
  <path d="M622.54,117.58c-6.81,0-12.25-4.48-16.31-13.44-4.06-8.96-6.09-21.08-6.09-36.37s2.03-27.41,6.09-36.37c4.06-8.96,9.5-13.44,16.31-13.44,5.23,0,9.69,2.83,13.37,8.48,3.68,5.65,5.75,13.1,6.21,22.34h-6.57c-.26-6.09-1.58-10.93-3.96-14.52-2.38-3.59-5.37-5.39-8.99-5.39-4.88,0-8.75,3.36-11.6,10.09-2.85,6.72-4.27,16.33-4.27,28.81s1.41,22.03,4.24,28.78c2.83,6.75,6.66,10.12,11.5,10.12,3.77,0,6.81-1.84,9.13-5.52s3.64-8.94,3.94-15.77h6.57c-.46,10.25-2.47,18.18-6.04,23.78-3.57,5.61-8.08,8.41-13.54,8.41Z" fill="#fff" stroke="#000" stroke-miterlimit="10"/>
  <path d="M658.15,115.94h-6.41V19.62h6.41v96.32Z" fill="#fff" stroke="#000" stroke-miterlimit="10"/>
  <path d="M703.88,31.05h-15.93v84.89h-6.41V31.05h-15.8v-11.43h38.14v11.43Z" fill="#fff" stroke="#000" stroke-miterlimit="10"/>
  <path d="M750.3,115.94h-7.19l-5.58-29.3h-20.17l-5.32,29.3h-6.73l18.5-96.32h6.87l19.64,96.32ZM735.65,76.52l-8.48-44.68-8.08,44.68h16.56Z" fill="#fff" stroke="#000" stroke-miterlimit="10"/>
  <path d="M775.79,117.58c-6.81,0-12.25-4.48-16.31-13.44-4.06-8.96-6.09-21.08-6.09-36.37s2.03-27.41,6.09-36.37c4.06-8.96,9.5-13.44,16.31-13.44,5.23,0,9.69,2.83,13.37,8.48,3.68,5.65,5.75,13.1,6.21,22.34h-6.57c-.26-6.09-1.58-10.93-3.96-14.52-2.38-3.59-5.37-5.39-8.99-5.39-4.88,0-8.75,3.36-11.6,10.09-2.85,6.72-4.27,16.33-4.27,28.81s1.41,22.03,4.24,28.78c2.83,6.75,6.66,10.12,11.5,10.12,3.77,0,6.81-1.84,9.13-5.52s3.64-8.94,3.94-15.77h6.57c-.46,10.25-2.47,18.18-6.04,23.78-3.57,5.61-8.08,8.41-13.54,8.41Z" fill="#fff" stroke="#000" stroke-miterlimit="10"/>
  <path d="M811.41,115.94h-6.41V19.62h6.41v96.32Z" fill="#fff" stroke="#000" stroke-miterlimit="10"/>
  <path d="M843.76,17.98c6.75,0,12.26,4.56,16.56,13.67,4.29,9.11,6.44,21.16,6.44,36.14s-2.15,27.03-6.44,36.14c-4.29,9.11-9.81,13.67-16.56,13.67s-12.31-4.57-16.62-13.7-6.47-21.17-6.47-36.1,2.16-27.03,6.47-36.14c4.31-9.11,9.86-13.67,16.62-13.67ZM843.7,106.68c4.82,0,8.77-3.42,11.84-10.25s4.62-16.38,4.62-28.65-1.53-21.81-4.6-28.65c-3.07-6.83-6.98-10.25-11.73-10.25s-8.81,3.42-11.91,10.25c-3.1,6.83-4.65,16.38-4.65,28.65s1.54,21.76,4.63,28.61c3.09,6.86,7.02,10.28,11.79,10.28Z" fill="#fff" stroke="#000" stroke-miterlimit="10"/>
  <path d="M913.05,115.94h-6.54l-25.23-76.02v76.02h-6.04V19.62h6.5l25.23,76.02V19.62h6.08v96.32Z" fill="#fff" stroke="#000" stroke-miterlimit="10"/>
  <path d="M948.89,115.94h-6.41V19.62h6.41v96.32Z" fill="#fff" stroke="#000" stroke-miterlimit="10"/>
  <path d="M998.2,115.94h-6.54l-25.23-76.02v76.02h-6.04V19.62h6.5l25.23,76.02V19.62h6.08v96.32Z" fill="#fff" stroke="#000" stroke-miterlimit="10"/>
  <path d="M1043.21,31.05h-15.93v84.89h-6.41V31.05h-15.8v-11.43h38.14v11.43Z" fill="#fff" stroke="#000" stroke-miterlimit="10"/>
  <path d="M1085.98,115.94h-35.91V19.62h34.79v11.43h-28.42v29.44h26.58v11.43h-26.58v32.59h29.53v11.43Z" fill="#fff" stroke="#000" stroke-miterlimit="10"/>
  <path d="M1116,117.58c-6.92,0-12.53-4.53-16.84-13.6s-6.46-21.13-6.46-36.2,2.12-27.19,6.37-36.24c4.25-9.04,9.82-13.57,16.72-13.57,5.8,0,10.63,2.79,14.47,8.38,3.84,5.58,6,13.06,6.46,22.44h-6.6c-.26-6.22-1.66-11.09-4.21-14.62-2.54-3.53-5.89-5.29-10.05-5.29-4.97,0-8.97,3.4-12.01,10.18-3.03,6.79-4.55,16.36-4.55,28.71s1.53,21.87,4.6,28.68c3.07,6.81,7.07,10.22,12.02,10.22,6.94,0,12.1-4.58,15.47-13.73v-14.65h-12.71v-11.5h18.89v49.15h-4.5l-1.68-10.12c-3.26,7.84-8.4,11.76-15.41,11.76Z" fill="#fff" stroke="#000" stroke-miterlimit="10"/>
  <path d="M1187.42,115.94h-6.9l-4.53-25.69c-.81-4.56-2.16-8.28-4.04-11.17-1.88-2.89-4.05-4.34-6.5-4.34h-11.79v41.2h-6.37V19.62h21.32c3.72,0,6.77.72,9.13,2.17s4.29,4.49,5.78,9.13c1.49,4.64,2.23,9.88,2.23,15.7,0,6.66-.96,12.22-2.89,16.69-1.93,4.47-4.57,7.38-7.92,8.74v.26c3.35,2.15,5.9,7.95,7.65,17.41l4.83,26.22ZM1153.65,63.31h14.22c3.96,0,6.84-1.25,8.62-3.75,1.78-2.5,2.68-6.81,2.68-12.94,0-10.95-3.44-16.43-10.32-16.43h-15.21v33.11Z" fill="#fff" stroke="#000" stroke-miterlimit="10"/>
  <path d="M1235.42,115.94h-7.19l-5.58-29.3h-20.17l-5.32,29.3h-6.73l18.5-96.32h6.87l19.64,96.32ZM1220.77,76.52l-8.48-44.68-8.08,44.68h16.56Z" fill="#fff" stroke="#000" stroke-miterlimit="10"/>
  <path d="M1270.54,115.94h-29.8V19.62h6.37v84.89h23.42v11.43Z" fill="#fff" stroke="#000" stroke-miterlimit="10"/>
  <path d="M1296.03,19.62h17.97c3.94,0,7.24.73,9.9,2.2,2.66,1.47,4.77,4.64,6.32,9.53,1.55,4.88,2.33,10.35,2.33,16.39,0,9.72-1.54,17.11-4.63,22.14-3.09,5.04-7.56,7.56-13.4,7.56h-12.12v38.5h-6.37V19.62ZM1302.4,66.01h12.19c4.09,0,7.01-1.53,8.75-4.6,1.74-3.07,2.61-7.49,2.61-13.27,0-3.85-.48-7.27-1.45-10.25-.96-2.98-2.18-4.86-3.66-5.65s-3.61-1.18-6.39-1.18h-12.06v34.95Z" fill="#fff" stroke="#000" stroke-miterlimit="10"/>
  <path d="M1361.77,17.98c6.75,0,12.26,4.56,16.56,13.67,4.29,9.11,6.44,21.16,6.44,36.14s-2.15,27.03-6.44,36.14c-4.29,9.11-9.81,13.67-16.56,13.67s-12.31-4.57-16.62-13.7-6.47-21.17-6.47-36.1,2.16-27.03,6.47-36.14c4.31-9.11,9.86-13.67,16.62-13.67ZM1361.7,106.68c4.82,0,8.77-3.42,11.84-10.25s4.62-16.38,4.62-28.65-1.53-21.81-4.6-28.65c-3.07-6.83-6.98-10.25-11.73-10.25s-8.81,3.42-11.91,10.25c-3.1,6.83-4.65,16.38-4.65,28.65s1.54,21.76,4.63,28.61c3.09,6.86,7.02,10.28,11.79,10.28Z" fill="#fff" stroke="#000" stroke-miterlimit="10"/>
  <path d="M1427.47,31.05h-15.93v84.89h-6.41V31.05h-15.8v-11.43h38.14v11.43Z" fill="#fff" stroke="#000" stroke-miterlimit="10"/>
  <path d="M1455.2,17.98c6.75,0,12.26,4.56,16.56,13.67,4.29,9.11,6.44,21.16,6.44,36.14s-2.15,27.03-6.44,36.14c-4.29,9.11-9.81,13.67-16.56,13.67s-12.31-4.57-16.62-13.7-6.47-21.17-6.47-36.1,2.16-27.03,6.47-36.14c4.31-9.11,9.86-13.67,16.62-13.67ZM1455.13,106.68c4.82,0,8.77-3.42,11.84-10.25s4.62-16.38,4.62-28.65-1.53-21.81-4.6-28.65c-3.07-6.83-6.98-10.25-11.73-10.25s-8.81,3.42-11.91,10.25c-3.1,6.83-4.65,16.38-4.65,28.65s1.54,21.76,4.63,28.61c3.09,6.86,7.02,10.28,11.79,10.28Z" fill="#fff" stroke="#000" stroke-miterlimit="10"/>
  <path d="M1504.83,117.58c-6.79,0-11.87-3.04-15.23-9.13-3.36-6.09-5.13-13.91-5.31-23.46h6.14c.33,7.18,1.82,12.5,4.48,15.93,2.66,3.44,5.88,5.16,9.64,5.16,3.57,0,6.44-1.47,8.62-4.4,2.18-2.93,3.27-6.92,3.27-11.96,0-5.3-1.13-9.15-3.38-11.56-2.26-2.41-6.14-4.79-11.65-7.13-5.51-2.34-9.46-5.59-11.86-9.76-2.4-4.16-3.6-9.7-3.6-16.62,0-7.8,1.56-14.19,4.68-19.19,3.12-4.99,7.27-7.49,12.43-7.49,5.43,0,9.81,2.52,13.14,7.56,3.33,5.04,5.09,12.15,5.29,21.35h-6.21c-.64-11.65-4.62-17.48-11.96-17.48-3.55,0-6.3,1.34-8.25,4.01-1.95,2.67-2.92,6.22-2.92,10.64,0,4.03.78,7.05,2.35,9.07,1.57,2.02,4.49,3.96,8.77,5.85,4.28,1.88,7.68,3.75,10.2,5.58,2.52,1.84,4.68,4.7,6.47,8.57,1.79,3.88,2.69,9.08,2.69,15.6,0,8.28-1.65,15.16-4.94,20.63-3.3,5.48-7.59,8.21-12.89,8.21Z" fill="#fff" stroke="#000" stroke-miterlimit="10"/>
  <path d="M1538.74,115.94h-6.41V19.62h6.41v96.32Z" fill="#fff" stroke="#000" stroke-miterlimit="10"/>
</svg>